{
  "asset": {
    "generator": "Khronos glTF Blender I/O v3.4.50",
    "version": "2.0"
  },
  "scene": 0,
  "scenes": [
    {
      "name": "Scene",
      "nodes": [0, 1, 3, 5, 6]
    }
  ],
  "nodes": [
    {
      "mesh": 0,
      "name": "Cube.002_Material.007",
      "rotation": [0, -0.9999991059303284, 0, 0.0013291077921167016],
      "scale": [0.6914867758750916, 0.6914867758750916, 0.6914867758750916],
      "translation": [
        0.3529059588909149, 2.069401741027832, -0.20671147108078003
      ]
    },
    {
      "mesh": 1,
      "name": "Cube.002_Material.004",
      "rotation": [0, -0.9999991059303284, 0, 0.0013291077921167016],
      "scale": [0.6914867758750916, 0.6914867758750916, 0.6914867758750916],
      "translation": [
        0.3529059588909149, 2.069401741027832, -0.20671147108078003
      ]
    },
    {
      "mesh": 2,
      "name": "Cube.002_Material.006"
    },
    {
      "children": [2],
      "mesh": 3,
      "name": "Cube.002_Material.002",
      "rotation": [0, -0.9999991059303284, 0, 0.0013291077921167016],
      "scale": [0.6914867758750916, 0.6914867758750916, 0.6914867758750916],
      "translation": [
        0.3539651930332184, 1.2368627786636353, 0.19176864624023438
      ]
    },
    {
      "mesh": 4,
      "name": "Cube.002_Material.005"
    },
    {
      "children": [4],
      "mesh": 5,
      "name": "Cube.002_Material.003",
      "rotation": [0, -0.9999991059303284, 0, 0.0013291077921167016],
      "scale": [0.6914867758750916, 0.6914867758750916, 0.6914867758750916],
      "translation": [
        0.34894511103630066, -0.724100649356842, -1.6967744827270508
      ]
    },
    {
      "mesh": 6,
      "name": "Cube.002_Material.001",
      "rotation": [0, -0.9999991059303284, 0, 0.0013291077921167016],
      "scale": [0.6914867758750916, 0.6914867758750916, 0.6914867758750916],
      "translation": [
        0.3546897768974304, 1.6725444793701172, 0.4643564820289612
      ]
    }
  ],
  "materials": [
    {
      "doubleSided": true,
      "name": "Material",
      "pbrMetallicRoughness": {
        "baseColorFactor": [0, 0, 0, 1],
        "metallicFactor": 0,
        "roughnessFactor": 0.5
      }
    },
    {
      "doubleSided": true,
      "name": "Material.004",
      "pbrMetallicRoughness": {
        "baseColorFactor": [
          0.788964569568634, 0.5787585973739624, 0.3459685742855072, 1
        ],
        "metallicFactor": 0,
        "roughnessFactor": 0.5
      }
    },
    {
      "doubleSided": true,
      "name": "Material.002",
      "pbrMetallicRoughness": {
        "baseColorFactor": [
          0.7983101010322571, 0.7430298924446106, 0.6186494827270508, 1
        ],
        "metallicFactor": 0,
        "roughnessFactor": 0.5
      }
    },
    {
      "doubleSided": true,
      "name": "Material.003",
      "pbrMetallicRoughness": {
        "baseColorFactor": [
          0.788964569568634, 0.5987133979797363, 0.3312219977378845, 1
        ],
        "metallicFactor": 0,
        "roughnessFactor": 0.5
      }
    },
    {
      "doubleSided": true,
      "name": "Material.001",
      "pbrMetallicRoughness": {
        "baseColorFactor": [0, 0, 0, 1],
        "metallicFactor": 0,
        "roughnessFactor": 0.5
      }
    }
  ],
  "meshes": [
    {
      "name": "Cube.002_Material.007",
      "primitives": [
        {
          "attributes": {
            "POSITION": 0,
            "TEXCOORD_0": 1,
            "NORMAL": 2,
            "TANGENT": 3
          },
          "indices": 4,
          "material": 0
        }
      ]
    },
    {
      "name": "Cube.002_Material.004",
      "primitives": [
        {
          "attributes": {
            "POSITION": 5,
            "TEXCOORD_0": 6,
            "NORMAL": 7,
            "TANGENT": 8
          },
          "indices": 4,
          "material": 1
        }
      ]
    },
    {
      "name": "Cube.002_Material.006",
      "primitives": [
        {
          "attributes": {
            "POSITION": 9,
            "TEXCOORD_0": 10,
            "NORMAL": 11,
            "TANGENT": 12
          },
          "indices": 13,
          "material": 2
        }
      ]
    },
    {
      "name": "Mesh",
      "primitives": [
        {
          "attributes": {
            "POSITION": 14,
            "TEXCOORD_0": 15,
            "NORMAL": 16,
            "TANGENT": 17
          },
          "indices": 18,
          "material": 2
        },
        {
          "attributes": {
            "POSITION": 19,
            "TEXCOORD_0": 20,
            "NORMAL": 21,
            "TANGENT": 22
          },
          "indices": 23,
          "material": 0
        }
      ]
    },
    {
      "name": "Cube.002_Material.005",
      "primitives": [
        {
          "attributes": {
            "POSITION": 24,
            "TEXCOORD_0": 25,
            "NORMAL": 26,
            "TANGENT": 27
          },
          "indices": 28,
          "material": 3
        }
      ]
    },
    {
      "name": "Mesh",
      "primitives": [
        {
          "attributes": {
            "POSITION": 29,
            "TEXCOORD_0": 30,
            "NORMAL": 31,
            "TANGENT": 32
          },
          "indices": 28,
          "material": 3
        }
      ]
    },
    {
      "name": "Cube.002_Material.001",
      "primitives": [
        {
          "attributes": {
            "POSITION": 33,
            "TEXCOORD_0": 34,
            "NORMAL": 35,
            "TANGENT": 36
          },
          "indices": 37,
          "material": 4
        }
      ]
    }
  ],
  "accessors": [
    {
      "bufferView": 0,
      "componentType": 5126,
      "count": 108,
      "max": [1.2148038148880005, 0.10486823320388794, -0.01503709889948368],
      "min": [-1.2148038148880005, -0.10486797988414764, -0.14278952777385712],
      "type": "VEC3"
    },
    {
      "bufferView": 1,
      "componentType": 5126,
      "count": 108,
      "type": "VEC2"
    },
    {
      "bufferView": 2,
      "componentType": 5126,
      "count": 108,
      "type": "VEC3"
    },
    {
      "bufferView": 3,
      "componentType": 5126,
      "count": 108,
      "type": "VEC4"
    },
    {
      "bufferView": 4,
      "componentType": 5123,
      "count": 480,
      "type": "SCALAR"
    },
    {
      "bufferView": 5,
      "componentType": 5126,
      "count": 108,
      "max": [1.3676424026489258, 0.24925941228866577, 0.15182660520076752],
      "min": [-1.3676424026489258, -0.24925993382930756, -0.15182656049728394],
      "type": "VEC3"
    },
    {
      "bufferView": 6,
      "componentType": 5126,
      "count": 108,
      "type": "VEC2"
    },
    {
      "bufferView": 7,
      "componentType": 5126,
      "count": 108,
      "type": "VEC3"
    },
    {
      "bufferView": 8,
      "componentType": 5126,
      "count": 108,
      "type": "VEC4"
    },
    {
      "bufferView": 9,
      "componentType": 5126,
      "count": 478,
      "max": [1.2149176597595215, 1.074894666671753, 0.42445647716522217],
      "min": [-1.214917540550232, -1.0598664283752441, -0.4233650863170624],
      "type": "VEC3"
    },
    {
      "bufferView": 10,
      "componentType": 5126,
      "count": 478,
      "type": "VEC2"
    },
    {
      "bufferView": 11,
      "componentType": 5126,
      "count": 478,
      "type": "VEC3"
    },
    {
      "bufferView": 12,
      "componentType": 5126,
      "count": 478,
      "type": "VEC4"
    },
    {
      "bufferView": 13,
      "componentType": 5123,
      "count": 1080,
      "type": "SCALAR"
    },
    {
      "bufferView": 14,
      "componentType": 5126,
      "count": 476,
      "max": [1.213992953300476, 1.074894666671753, 0.42445647716522217],
      "min": [-1.2139930725097656, -1.0598664283752441, -0.4186672568321228],
      "type": "VEC3"
    },
    {
      "bufferView": 15,
      "componentType": 5126,
      "count": 476,
      "type": "VEC2"
    },
    {
      "bufferView": 16,
      "componentType": 5126,
      "count": 476,
      "type": "VEC3"
    },
    {
      "bufferView": 17,
      "componentType": 5126,
      "count": 476,
      "type": "VEC4"
    },
    {
      "bufferView": 18,
      "componentType": 5123,
      "count": 1080,
      "type": "SCALAR"
    },
    {
      "bufferView": 19,
      "componentType": 5126,
      "count": 133,
      "max": [1.1143068075180054, -0.12978778779506683, 0.2907787561416626],
      "min": [-1.114306926727295, -0.4648643136024475, -0.23599974811077118],
      "type": "VEC3"
    },
    {
      "bufferView": 20,
      "componentType": 5126,
      "count": 133,
      "type": "VEC2"
    },
    {
      "bufferView": 21,
      "componentType": 5126,
      "count": 133,
      "type": "VEC3"
    },
    {
      "bufferView": 22,
      "componentType": 5126,
      "count": 133,
      "type": "VEC4"
    },
    {
      "bufferView": 23,
      "componentType": 5123,
      "count": 288,
      "type": "SCALAR"
    },
    {
      "bufferView": 24,
      "componentType": 5126,
      "count": 12457,
      "max": [5.4730224609375, 7.074076175689697, 3.1631367206573486],
      "min": [-5.473022937774658, -7.232810020446777, -3.0953476428985596],
      "type": "VEC3"
    },
    {
      "bufferView": 25,
      "componentType": 5126,
      "count": 12457,
      "type": "VEC2"
    },
    {
      "bufferView": 26,
      "componentType": 5126,
      "count": 12457,
      "type": "VEC3"
    },
    {
      "bufferView": 27,
      "componentType": 5126,
      "count": 12457,
      "type": "VEC4"
    },
    {
      "bufferView": 28,
      "componentType": 5123,
      "count": 28476,
      "type": "SCALAR"
    },
    {
      "bufferView": 29,
      "componentType": 5126,
      "count": 12457,
      "max": [5.4730224609375, 7.074076175689697, 3.1631367206573486],
      "min": [-5.473022937774658, -7.232810020446777, -3.0953476428985596],
      "type": "VEC3"
    },
    {
      "bufferView": 30,
      "componentType": 5126,
      "count": 12457,
      "type": "VEC2"
    },
    {
      "bufferView": 31,
      "componentType": 5126,
      "count": 12457,
      "type": "VEC3"
    },
    {
      "bufferView": 32,
      "componentType": 5126,
      "count": 12457,
      "type": "VEC4"
    },
    {
      "bufferView": 33,
      "componentType": 5126,
      "count": 66,
      "max": [0.3558986186981201, 0.21562862396240234, 0.161759614944458],
      "min": [-0.3558986186981201, -0.21562862396240234, -0.1617593765258789],
      "type": "VEC3"
    },
    {
      "bufferView": 34,
      "componentType": 5126,
      "count": 66,
      "type": "VEC2"
    },
    {
      "bufferView": 35,
      "componentType": 5126,
      "count": 66,
      "type": "VEC3"
    },
    {
      "bufferView": 36,
      "componentType": 5126,
      "count": 66,
      "type": "VEC4"
    },
    {
      "bufferView": 37,
      "componentType": 5123,
      "count": 90,
      "type": "SCALAR"
    }
  ],
  "bufferViews": [
    {
      "buffer": 0,
      "byteLength": 1296,
      "byteOffset": 0,
      "target": 34962
    },
    {
      "buffer": 0,
      "byteLength": 864,
      "byteOffset": 1296,
      "target": 34962
    },
    {
      "buffer": 0,
      "byteLength": 1296,
      "byteOffset": 2160,
      "target": 34962
    },
    {
      "buffer": 0,
      "byteLength": 1728,
      "byteOffset": 3456,
      "target": 34962
    },
    {
      "buffer": 0,
      "byteLength": 960,
      "byteOffset": 5184,
      "target": 34963
    },
    {
      "buffer": 0,
      "byteLength": 1296,
      "byteOffset": 6144,
      "target": 34962
    },
    {
      "buffer": 0,
      "byteLength": 864,
      "byteOffset": 7440,
      "target": 34962
    },
    {
      "buffer": 0,
      "byteLength": 1296,
      "byteOffset": 8304,
      "target": 34962
    },
    {
      "buffer": 0,
      "byteLength": 1728,
      "byteOffset": 9600,
      "target": 34962
    },
    {
      "buffer": 0,
      "byteLength": 5736,
      "byteOffset": 11328,
      "target": 34962
    },
    {
      "buffer": 0,
      "byteLength": 3824,
      "byteOffset": 17064,
      "target": 34962
    },
    {
      "buffer": 0,
      "byteLength": 5736,
      "byteOffset": 20888,
      "target": 34962
    },
    {
      "buffer": 0,
      "byteLength": 7648,
      "byteOffset": 26624,
      "target": 34962
    },
    {
      "buffer": 0,
      "byteLength": 2160,
      "byteOffset": 34272,
      "target": 34963
    },
    {
      "buffer": 0,
      "byteLength": 5712,
      "byteOffset": 36432,
      "target": 34962
    },
    {
      "buffer": 0,
      "byteLength": 3808,
      "byteOffset": 42144,
      "target": 34962
    },
    {
      "buffer": 0,
      "byteLength": 5712,
      "byteOffset": 45952,
      "target": 34962
    },
    {
      "buffer": 0,
      "byteLength": 7616,
      "byteOffset": 51664,
      "target": 34962
    },
    {
      "buffer": 0,
      "byteLength": 2160,
      "byteOffset": 59280,
      "target": 34963
    },
    {
      "buffer": 0,
      "byteLength": 1596,
      "byteOffset": 61440,
      "target": 34962
    },
    {
      "buffer": 0,
      "byteLength": 1064,
      "byteOffset": 63036,
      "target": 34962
    },
    {
      "buffer": 0,
      "byteLength": 1596,
      "byteOffset": 64100,
      "target": 34962
    },
    {
      "buffer": 0,
      "byteLength": 2128,
      "byteOffset": 65696,
      "target": 34962
    },
    {
      "buffer": 0,
      "byteLength": 576,
      "byteOffset": 67824,
      "target": 34963
    },
    {
      "buffer": 0,
      "byteLength": 149484,
      "byteOffset": 68400,
      "target": 34962
    },
    {
      "buffer": 0,
      "byteLength": 99656,
      "byteOffset": 217884,
      "target": 34962
    },
    {
      "buffer": 0,
      "byteLength": 149484,
      "byteOffset": 317540,
      "target": 34962
    },
    {
      "buffer": 0,
      "byteLength": 199312,
      "byteOffset": 467024,
      "target": 34962
    },
    {
      "buffer": 0,
      "byteLength": 56952,
      "byteOffset": 666336,
      "target": 34963
    },
    {
      "buffer": 0,
      "byteLength": 149484,
      "byteOffset": 723288,
      "target": 34962
    },
    {
      "buffer": 0,
      "byteLength": 99656,
      "byteOffset": 872772,
      "target": 34962
    },
    {
      "buffer": 0,
      "byteLength": 149484,
      "byteOffset": 972428,
      "target": 34962
    },
    {
      "buffer": 0,
      "byteLength": 199312,
      "byteOffset": 1121912,
      "target": 34962
    },
    {
      "buffer": 0,
      "byteLength": 792,
      "byteOffset": 1321224,
      "target": 34962
    },
    {
      "buffer": 0,
      "byteLength": 528,
      "byteOffset": 1322016,
      "target": 34962
    },
    {
      "buffer": 0,
      "byteLength": 792,
      "byteOffset": 1322544,
      "target": 34962
    },
    {
      "buffer": 0,
      "byteLength": 1056,
      "byteOffset": 1323336,
      "target": 34962
    },
    {
      "buffer": 0,
      "byteLength": 180,
      "byteOffset": 1324392,
      "target": 34963
    }
  ],
  "buffers": [
    {
      "byteLength": 1324572,
      "uri": "data:application/octet-stream;base64,"
    }
  ]
}
